<svg width="196" height="88" viewBox="0 0 196 88" fill="none" xmlns="http://www.w3.org/2000/svg">
<g clip-path="url(#clip0_1003_1462)">
<path d="M12.1669 26.6952C13.4164 25.9679 14.6349 25.1742 15.9257 24.5296C17.339 23.8259 18.8496 23.8008 20.2392 24.5901C24.743 27.1481 29.2232 29.7474 33.7004 32.3526C35.211 33.2318 35.8955 34.6553 35.9073 36.34C35.9383 40.7627 35.894 45.1853 35.8792 49.608C35.8453 49.4693 35.7952 49.3321 35.7819 49.1905C35.3777 45.3225 33.5086 43.3074 30.0006 42.1272C27.7317 41.3645 25.3449 41.307 22.9772 41.2096C20.5564 41.1108 18.1267 41.1093 15.7177 40.8881C13.3544 40.6697 11.1239 39.9174 9.16045 38.5159C7.30023 37.1883 6.58475 35.0433 7.2722 32.8645C7.91538 30.8257 9.27404 29.3033 10.8437 27.9314C11.2405 27.5847 11.6167 27.213 12.0017 26.853V26.884C12.0577 26.8206 12.1123 26.7586 12.1684 26.6952H12.1669Z" fill="url(#paint0_linear_1003_1462)"/>
<path d="M0.123935 47.7286C0.118034 45.0142 0.112133 42.2998 0.106233 39.5855C0.206546 39.7581 0.354066 39.9174 0.402747 40.1033C1.17575 43.0743 3.11564 44.8711 5.98195 45.8226C8.33931 46.6045 10.7867 46.6384 13.2148 46.8036C15.0942 46.932 16.9869 46.8685 18.8678 46.9806C21.2562 47.1223 23.5663 47.6578 25.6891 48.7966C28.8505 50.4916 30.0262 53.3122 28.1512 56.5222C27.4623 57.7009 26.3972 58.6598 25.4959 59.7131C25.1566 60.1084 24.7922 60.4846 24.4396 60.8682L24.4441 60.8549C24.385 60.8962 24.326 60.9375 24.2656 60.9803C24.1697 61.0349 24.0723 61.088 23.9764 61.1426L23.9838 61.1381C23.885 61.1986 23.7861 61.2591 23.6873 61.3181C22.1162 62.1472 20.5835 63.0618 18.9622 63.7773C17.8779 64.2552 16.7347 63.8953 15.7315 63.3229C11.2809 60.7797 6.83019 58.2349 2.40754 55.643C0.864485 54.7387 0.0708278 53.324 0.0811542 51.5036C0.087055 50.4724 0.0959062 49.4413 0.104757 48.4101C0.112133 48.1829 0.118034 47.9558 0.12541 47.7286H0.123935Z" fill="url(#paint1_linear_1003_1462)"/>
<path d="M24.4379 60.8682C24.7905 60.4831 25.1548 60.1084 25.4941 59.7131C26.397 58.6613 27.462 57.7009 28.1495 56.5222C30.0245 53.3122 28.8487 50.4916 25.6874 48.7966C23.566 47.6592 21.2544 47.1223 18.8661 46.9806C16.9852 46.8685 15.0925 46.932 13.2131 46.8036C10.7849 46.6384 8.33905 46.6045 5.98021 45.8226C3.1139 44.8711 1.17401 43.0758 0.401007 40.1033C0.352326 39.9174 0.206281 39.7566 0.104492 39.5855C0.167926 38.0527 0.136947 36.5082 0.325772 34.9917C0.467391 33.8543 1.25662 32.9869 2.2273 32.413C5.3739 30.5528 8.55148 28.7442 11.7187 26.9194C11.7984 26.8737 11.9046 26.8752 11.9975 26.853C11.6125 27.213 11.2363 27.5833 10.8395 27.9299C9.2699 29.3004 7.91124 30.8228 7.26806 32.863C6.58061 35.0419 7.29608 37.1868 9.15631 38.5145C11.1198 39.9159 13.3503 40.6697 15.7136 40.8866C18.1226 41.1079 20.5522 41.1093 22.973 41.2082C25.3422 41.3055 27.7291 41.3616 29.9964 42.1258C33.5045 43.3059 35.3735 45.3225 35.7777 49.189C35.7925 49.3306 35.8426 49.4678 35.8751 49.6065C35.8013 50.7158 35.7836 51.834 35.6391 52.9345C35.4856 54.1088 34.7318 54.9511 33.7552 55.5279C30.734 57.3159 27.6848 59.0537 24.6444 60.8091C24.5839 60.8446 24.5043 60.8475 24.4335 60.8667L24.4379 60.8682Z" fill="url(#paint2_linear_1003_1462)"/>
</g>
<path d="M65.1699 36.32V51.5H61.6739V44.531L61.7889 39.862H61.7429L57.9939 51.5H54.7969L51.0479 39.862H51.0019L51.1169 44.531V51.5H47.5979V36.32H53.2329L55.6249 44.048L56.4759 47.268H56.5219L57.3959 44.071L59.7649 36.32H65.1699ZM74.1676 44.209C74.1676 43.6723 74.0143 43.2507 73.7076 42.944C73.4163 42.622 73.0176 42.461 72.5116 42.461C72.0056 42.461 71.5686 42.5913 71.2006 42.852C70.848 43.0973 70.6026 43.542 70.4646 44.186L67.1526 43.404C67.3673 42.3 67.9346 41.4183 68.8546 40.759C69.7746 40.0997 71.0703 39.77 72.7416 39.77C73.861 39.77 74.8116 39.9387 75.5936 40.276C76.391 40.598 76.9966 41.0887 77.4106 41.748C77.84 42.392 78.0546 43.1893 78.0546 44.14V48.349C78.0546 48.947 78.323 49.246 78.8596 49.246C79.1356 49.246 79.358 49.2153 79.5266 49.154L79.2966 51.385C78.8366 51.5997 78.277 51.707 77.6176 51.707C77.0196 51.707 76.4906 51.615 76.0306 51.431C75.5706 51.2317 75.2103 50.9403 74.9496 50.557C74.689 50.1583 74.5586 49.66 74.5586 49.062V48.924L74.9956 48.763C74.9956 49.4223 74.7963 49.9743 74.3976 50.419C74.0143 50.8637 73.5083 51.1933 72.8796 51.408C72.2663 51.6227 71.6223 51.73 70.9476 51.73C70.1656 51.73 69.4833 51.6073 68.9006 51.362C68.318 51.1167 67.8656 50.764 67.5436 50.304C67.237 49.8287 67.0836 49.246 67.0836 48.556C67.0836 47.728 67.329 47.0457 67.8196 46.509C68.3256 45.957 69.1153 45.5737 70.1886 45.359L74.5356 44.462L74.5126 46.532L72.3046 46.992C71.8446 47.084 71.4996 47.222 71.2696 47.406C71.055 47.5747 70.9476 47.8353 70.9476 48.188C70.9476 48.5253 71.0703 48.7783 71.3156 48.947C71.561 49.1157 71.8523 49.2 72.1896 49.2C72.4503 49.2 72.6956 49.1617 72.9256 49.085C73.171 49.0083 73.3856 48.8933 73.5696 48.74C73.7536 48.5713 73.8993 48.3643 74.0066 48.119C74.114 47.8737 74.1676 47.5823 74.1676 47.245V44.209ZM84.9677 36.343V47.406C84.9677 47.958 85.0981 48.3567 85.3587 48.602C85.6347 48.832 86.0104 48.947 86.4857 48.947C86.8537 48.947 87.1681 48.9087 87.4287 48.832C87.7047 48.74 87.9501 48.6097 88.1647 48.441L88.5787 50.856C88.1954 51.132 87.7124 51.3467 87.1297 51.5C86.5471 51.6533 85.9491 51.73 85.3357 51.73C84.4617 51.73 83.7027 51.6073 83.0587 51.362C82.4301 51.1167 81.9394 50.7257 81.5867 50.189C81.2494 49.6523 81.0731 48.9393 81.0577 48.05V37.424L84.9677 36.343ZM88.3947 40V42.783H79.0797V40H88.3947ZM89.7408 51.5V40H93.1908L93.3518 42.484C93.6431 41.6253 94.0724 40.9583 94.6398 40.483C95.2224 40.0077 95.9584 39.77 96.8478 39.77C97.1391 39.77 97.3844 39.793 97.5838 39.839C97.7984 39.885 97.9671 39.9463 98.0898 40.023L97.6988 43.243C97.5454 43.1817 97.3461 43.1357 97.1008 43.105C96.8708 43.059 96.5871 43.036 96.2498 43.036C95.7898 43.036 95.3604 43.1357 94.9618 43.335C94.5631 43.5343 94.2411 43.8333 93.9958 44.232C93.7658 44.6153 93.6508 45.106 93.6508 45.704V51.5H89.7408ZM103.051 51.73C102.269 51.73 101.579 51.5997 100.981 51.339C100.398 51.063 99.9379 50.626 99.6006 50.028C99.2633 49.43 99.0946 48.648 99.0946 47.682V40H103.005V46.762C103.005 47.498 103.15 48.0117 103.442 48.303C103.733 48.5943 104.147 48.74 104.684 48.74C104.96 48.74 105.22 48.694 105.466 48.602C105.711 48.4947 105.926 48.3413 106.11 48.142C106.294 47.9273 106.432 47.659 106.524 47.337C106.631 46.9997 106.685 46.6087 106.685 46.164V40H110.595V51.5H107.099L106.984 49.338C106.616 50.1507 106.102 50.7563 105.443 51.155C104.783 51.5383 103.986 51.73 103.051 51.73ZM113.175 51.5V36.32H120.558C122.429 36.3353 123.809 36.6957 124.698 37.401C125.587 38.091 126.032 39.0953 126.032 40.414C126.032 41.2727 125.779 42.0163 125.273 42.645C124.767 43.2583 123.993 43.6493 122.95 43.818V43.841C124.115 43.9943 124.982 44.4007 125.549 45.06C126.132 45.704 126.423 46.486 126.423 47.406C126.423 48.7093 125.963 49.7213 125.043 50.442C124.123 51.1473 122.743 51.5 120.903 51.5H113.175ZM116.993 48.717H120.236C120.957 48.717 121.493 48.5713 121.846 48.28C122.199 47.9887 122.375 47.567 122.375 47.015C122.375 46.4783 122.199 46.072 121.846 45.796C121.493 45.5047 120.957 45.359 120.236 45.359H116.993V48.717ZM116.993 42.53H119.868C121.279 42.53 121.984 41.978 121.984 40.874C121.984 39.77 121.279 39.218 119.868 39.218H116.993V42.53ZM128.162 51.5V35.124H132.072V42.093C132.409 41.3263 132.892 40.7513 133.521 40.368C134.149 39.9693 134.878 39.77 135.706 39.77C136.503 39.77 137.193 39.9233 137.776 40.23C138.374 40.5367 138.841 40.989 139.179 41.587C139.516 42.185 139.685 42.9363 139.685 43.841V51.5H135.775V44.922C135.775 44.094 135.621 43.5267 135.315 43.22C135.023 42.898 134.632 42.737 134.142 42.737C133.774 42.737 133.429 42.829 133.107 43.013C132.785 43.197 132.532 43.4883 132.348 43.887C132.164 44.2857 132.072 44.807 132.072 45.451V51.5H128.162ZM147.438 39.77C148.65 39.77 149.708 40.0077 150.612 40.483C151.532 40.943 152.245 41.6253 152.751 42.53C153.273 43.4193 153.533 44.4927 153.533 45.75C153.533 47.0073 153.273 48.0883 152.751 48.993C152.245 49.8823 151.532 50.5647 150.612 51.04C149.708 51.5 148.65 51.73 147.438 51.73C146.258 51.73 145.207 51.5 144.287 51.04C143.367 50.5647 142.647 49.8823 142.125 48.993C141.619 48.0883 141.366 47.0073 141.366 45.75C141.366 44.4927 141.619 43.4193 142.125 42.53C142.647 41.6253 143.367 40.943 144.287 40.483C145.207 40.0077 146.258 39.77 147.438 39.77ZM147.438 42.553C146.994 42.553 146.61 42.6603 146.288 42.875C145.966 43.0897 145.721 43.4347 145.552 43.91C145.384 44.3853 145.299 44.9987 145.299 45.75C145.299 46.5013 145.384 47.1147 145.552 47.59C145.721 48.05 145.966 48.395 146.288 48.625C146.61 48.8397 146.994 48.947 147.438 48.947C147.898 48.947 148.289 48.8397 148.611 48.625C148.933 48.395 149.179 48.05 149.347 47.59C149.516 47.1147 149.6 46.5013 149.6 45.75C149.6 44.9987 149.516 44.3853 149.347 43.91C149.179 43.4347 148.933 43.0897 148.611 42.875C148.289 42.6603 147.898 42.553 147.438 42.553ZM160.747 39.77C161.958 39.77 163.016 40.0077 163.921 40.483C164.841 40.943 165.554 41.6253 166.06 42.53C166.581 43.4193 166.842 44.4927 166.842 45.75C166.842 47.0073 166.581 48.0883 166.06 48.993C165.554 49.8823 164.841 50.5647 163.921 51.04C163.016 51.5 161.958 51.73 160.747 51.73C159.566 51.73 158.516 51.5 157.596 51.04C156.676 50.5647 155.955 49.8823 155.434 48.993C154.928 48.0883 154.675 47.0073 154.675 45.75C154.675 44.4927 154.928 43.4193 155.434 42.53C155.955 41.6253 156.676 40.943 157.596 40.483C158.516 40.0077 159.566 39.77 160.747 39.77ZM160.747 42.553C160.302 42.553 159.919 42.6603 159.597 42.875C159.275 43.0897 159.029 43.4347 158.861 43.91C158.692 44.3853 158.608 44.9987 158.608 45.75C158.608 46.5013 158.692 47.1147 158.861 47.59C159.029 48.05 159.275 48.395 159.597 48.625C159.919 48.8397 160.302 48.947 160.747 48.947C161.207 48.947 161.598 48.8397 161.92 48.625C162.242 48.395 162.487 48.05 162.656 47.59C162.824 47.1147 162.909 46.5013 162.909 45.75C162.909 44.9987 162.824 44.3853 162.656 43.91C162.487 43.4347 162.242 43.0897 161.92 42.875C161.598 42.6603 161.207 42.553 160.747 42.553ZM168.581 51.5V40H172.077L172.192 42.231C172.56 41.4183 173.074 40.805 173.733 40.391C174.408 39.977 175.182 39.77 176.056 39.77C176.915 39.77 177.659 39.9617 178.287 40.345C178.916 40.7283 179.384 41.2957 179.69 42.047C179.936 41.541 180.25 41.1193 180.633 40.782C181.032 40.4447 181.484 40.1917 181.99 40.023C182.496 39.8543 183.018 39.77 183.554 39.77C184.321 39.77 184.996 39.9233 185.578 40.23C186.161 40.5213 186.621 40.9737 186.958 41.587C187.311 42.185 187.487 42.9363 187.487 43.841V51.5H183.577V44.738C183.577 44.002 183.432 43.4883 183.14 43.197C182.864 42.9057 182.489 42.76 182.013 42.76C181.63 42.76 181.277 42.8597 180.955 43.059C180.649 43.243 180.411 43.5267 180.242 43.91C180.074 44.2933 179.989 44.7763 179.989 45.359V51.5H176.079V44.738C176.079 44.002 175.934 43.4883 175.642 43.197C175.351 42.9057 174.975 42.76 174.515 42.76C174.163 42.76 173.825 42.852 173.503 43.036C173.197 43.22 172.951 43.5113 172.767 43.91C172.583 44.2933 172.491 44.7993 172.491 45.428V51.5H168.581ZM191.729 38.666C190.931 38.666 190.349 38.5203 189.981 38.229C189.628 37.9223 189.452 37.447 189.452 36.803C189.452 36.1437 189.628 35.6683 189.981 35.377C190.349 35.0703 190.931 34.917 191.729 34.917C192.511 34.917 193.086 35.0703 193.454 35.377C193.822 35.6683 194.006 36.1437 194.006 36.803C194.006 37.447 193.822 37.9223 193.454 38.229C193.086 38.5203 192.511 38.666 191.729 38.666ZM193.684 40V51.5H189.774V40H193.684Z" fill="white"/>
<defs>
<linearGradient id="paint0_linear_1003_1462" x1="28.3307" y1="26.2128" x2="14.39" y2="55.0529" gradientUnits="userSpaceOnUse">
<stop stop-color="#FCB82C"/>
<stop offset="1" stop-color="#FC832C"/>
</linearGradient>
<linearGradient id="paint1_linear_1003_1462" x1="19.7751" y1="44.6528" x2="1.99892" y2="70.1737" gradientUnits="userSpaceOnUse">
<stop stop-color="#F45537"/>
<stop offset="1" stop-color="#F43737"/>
</linearGradient>
<linearGradient id="paint2_linear_1003_1462" x1="21.545" y1="36.9817" x2="1.11353" y2="69.2148" gradientUnits="userSpaceOnUse">
<stop stop-color="#FF8931"/>
<stop offset="1" stop-color="#F84931"/>
</linearGradient>
<clipPath id="clip0_1003_1462">
<rect width="35.837" height="40" fill="white" transform="translate(0.0810547 24)"/>
</clipPath>
</defs>
</svg>
